<mxfile host="app.diagrams.net" modified="2020-04-23T02:33:46.896Z" agent="5.0 (Windows NT 10.0; Win64; x64) AppleWebKit/537.36 (KHTML, like Gecko) Chrome/84.0.4115.0 Safari/537.36 Edg/84.0.492.0" etag="K5ZsQ5jN3dK-iy4taZwI" version="13.0.1" type="github">
  <diagram id="Wznn7a2k2jTawrufnyEz" name="第 1 页">
    <mxGraphModel dx="1038" dy="548" grid="1" gridSize="10" guides="1" tooltips="1" connect="1" arrows="1" fold="1" page="1" pageScale="1" pageWidth="827" pageHeight="1169" math="0" shadow="0">
      <root>
        <mxCell id="0" />
        <mxCell id="1" parent="0" />
        <mxCell id="YEO6QjnM6efQHPKUiPns-1" value="tomcat" style="rounded=0;whiteSpace=wrap;html=1;labelPosition=center;verticalLabelPosition=top;align=center;verticalAlign=bottom;spacingBottom=-20;" vertex="1" parent="1">
          <mxGeometry x="280" y="80" width="400" height="350" as="geometry" />
        </mxCell>
        <mxCell id="YEO6QjnM6efQHPKUiPns-2" value="server" style="rounded=0;whiteSpace=wrap;html=1;labelPosition=center;verticalLabelPosition=top;align=center;verticalAlign=bottom;spacingBottom=-20;" vertex="1" parent="1">
          <mxGeometry x="315" y="110" width="330" height="290" as="geometry" />
        </mxCell>
        <mxCell id="YEO6QjnM6efQHPKUiPns-5" value="service" style="rounded=0;whiteSpace=wrap;html=1;spacingBottom=-20;verticalAlign=top;" vertex="1" parent="1">
          <mxGeometry x="340" y="137.5" width="280" height="232.5" as="geometry" />
        </mxCell>
        <mxCell id="YEO6QjnM6efQHPKUiPns-4" value="&lt;pre style=&quot;font-family: &amp;#34;consolas&amp;#34; ; font-size: 9pt&quot;&gt;engine&lt;/pre&gt;&lt;pre style=&quot;font-family: &amp;#34;consolas&amp;#34; ; font-size: 9pt&quot;&gt;(Container)&lt;/pre&gt;" style="rounded=0;whiteSpace=wrap;html=1;spacingBottom=0;labelPosition=center;verticalLabelPosition=middle;align=center;verticalAlign=middle;horizontal=1;" vertex="1" parent="1">
          <mxGeometry x="480" y="183.75" width="100" height="140" as="geometry" />
        </mxCell>
        <mxCell id="YEO6QjnM6efQHPKUiPns-8" value="&lt;pre style=&quot;font-family: &amp;#34;consolas&amp;#34; ; font-size: 9pt&quot;&gt;connector&lt;/pre&gt;" style="rounded=0;whiteSpace=wrap;html=1;" vertex="1" parent="1">
          <mxGeometry x="370" y="233.75" width="100" height="40" as="geometry" />
        </mxCell>
        <mxCell id="YEO6QjnM6efQHPKUiPns-9" value="&lt;pre style=&quot;font-family: &amp;#34;consolas&amp;#34; ; font-size: 9pt&quot;&gt;connector&lt;/pre&gt;" style="rounded=0;whiteSpace=wrap;html=1;" vertex="1" parent="1">
          <mxGeometry x="370" y="183.75" width="100" height="40" as="geometry" />
        </mxCell>
        <mxCell id="YEO6QjnM6efQHPKUiPns-10" value="&lt;pre style=&quot;font-family: &amp;#34;consolas&amp;#34; ; font-size: 9pt&quot;&gt;connector&lt;/pre&gt;" style="rounded=0;whiteSpace=wrap;html=1;" vertex="1" parent="1">
          <mxGeometry x="370" y="283.75" width="100" height="40" as="geometry" />
        </mxCell>
      </root>
    </mxGraphModel>
  </diagram>
</mxfile>
